HIERARCHY
ROOT joint_Root
{
	OFFSET 0.0 0.0 0.0
	CHANNELS 6 Xposition Yposition Zposition Zrotation Xrotation Yrotation 
	JOINT Hips
	{
		OFFSET 4.5925 91.4895 -427.239
		CHANNELS 6 Xposition Yposition Zposition Zrotation Xrotation Yrotation 
		JOINT Spine
		{
			OFFSET 15.7357 0.0 0.0
			CHANNELS 6 Xposition Yposition Zposition Zrotation Xrotation Yrotation 
			JOINT Chest
			{
				OFFSET 8.98455 -0.406207 0.0
				CHANNELS 6 Xposition Yposition Zposition Zrotation Xrotation Yrotation 
				JOINT Neck
				{
					OFFSET 16.3773 0.0 0.0
					CHANNELS 6 Xposition Yposition Zposition Zrotation Xrotation Yrotation 
					JOINT Head
					{
						OFFSET 6.45672 0.0 0.0
						CHANNELS 6 Xposition Yposition Zposition Zrotation Xrotation Yrotation 
						End Site
						{
							OFFSET 0.0 0.0 0.0
						}
					}
				}
				JOINT Shoulder_L
				{
					OFFSET 12.9942 -0.242716 4.98039
					CHANNELS 6 Xposition Yposition Zposition Zrotation Xrotation Yrotation 
					JOINT UpperArm_L
					{
						OFFSET 5.34809 0.0 0.0
						CHANNELS 6 Xposition Yposition Zposition Zrotation Xrotation Yrotation 
						JOINT LowerArm_L
						{
							OFFSET 24.3286 1.87007e-05 0.0
							CHANNELS 6 Xposition Yposition Zposition Zrotation Xrotation Yrotation 
							JOINT Hand_L
							{
								OFFSET 22.2916 0.0 0.0
								CHANNELS 6 Xposition Yposition Zposition Zrotation Xrotation Yrotation 
								End Site
								{
									OFFSET 0.0 0.0 0.0
								}
							}
						}
					}
				}
				JOINT Shoulder_R
				{
					OFFSET 12.9945 -0.242716 -4.98039
					CHANNELS 6 Xposition Yposition Zposition Zrotation Xrotation Yrotation 
					JOINT UpperArm_R
					{
						OFFSET -5.34813 0.0 0.0
						CHANNELS 6 Xposition Yposition Zposition Zrotation Xrotation Yrotation 
						JOINT LowerArm_R
						{
							OFFSET -24.3289 0.000322201 0.0
							CHANNELS 6 Xposition Yposition Zposition Zrotation Xrotation Yrotation 
							JOINT Hand_R
							{
								OFFSET -22.2915 -0.000108084 0.0
								CHANNELS 6 Xposition Yposition Zposition Zrotation Xrotation Yrotation 
								End Site
								{
									OFFSET 0.0 0.0 0.0
								}
							}
						}
					}
				}
			}
		}
		JOINT UpperLeg_L
		{
			OFFSET -2.19248 -6.46944 0.0
			CHANNELS 6 Xposition Yposition Zposition Zrotation Xrotation Yrotation 
			JOINT LowerLeg_L
			{
				OFFSET 39.0811 0.0 -1.23785e-05
				CHANNELS 6 Xposition Yposition Zposition Zrotation Xrotation Yrotation 
				JOINT Foot_L
				{
					OFFSET 40.9854 0.0 -1.26872e-05
					CHANNELS 6 Xposition Yposition Zposition Zrotation Xrotation Yrotation 
					JOINT Toes_L
					{
						OFFSET 11.7543 0.0 0.0
						CHANNELS 6 Xposition Yposition Zposition Zrotation Xrotation Yrotation 
						End Site
						{
							OFFSET 0.0 0.0 0.0
						}
					}
				}
			}
		}
		JOINT UpperLeg_R
		{
			OFFSET -2.19251 6.46944 0.0
			CHANNELS 6 Xposition Yposition Zposition Zrotation Xrotation Yrotation 
			JOINT LowerLeg_R
			{
				OFFSET -39.0811 -0.00228153 -0.0401928
				CHANNELS 6 Xposition Yposition Zposition Zrotation Xrotation Yrotation 
				JOINT Foot_R
				{
					OFFSET -40.9854 0.0 0.0
					CHANNELS 6 Xposition Yposition Zposition Zrotation Xrotation Yrotation 
					JOINT Toes_R
					{
						OFFSET -11.7543 0.0 0.0
						CHANNELS 6 Xposition Yposition Zposition Zrotation Xrotation Yrotation 
						End Site
						{
							OFFSET 0.0 0.0 0.0
						}
					}
				}
			}
		}
	}
}
MOTION
Frames:	4
Frame Time:	0.0333333
0.000000 0.000000 0.000000 0.000000 0.000000 -0.000000 -0.846416 91.287400 1.490950 89.405000 -0.994801 5.775720 15.735700 0.000005 -0.000001 81.120500 83.809600 -81.015800 8.984550 -0.406207 -0.000000 4.470180 -1.910810 0.283688 16.377300 -0.000001 -0.000001 3.004440 -3.173970 1.290030 6.456720 -0.000001 -0.000000 -2.802550 -1.086250 -1.955900 12.994200 -0.242716 4.980390 -91.920500 6.282730 -72.964600 5.348090 -0.000007 -0.000001 -59.387200 42.283400 -16.436100 24.328600 0.000019 0.000005 5.348710 15.640600 -19.150300 22.291600 -0.000001 0.000005 11.852700 5.216270 2.307970 12.994500 -0.242716 -4.980390 87.951900 11.391400 -79.737200 -5.348130 -0.000001 -0.000004 -62.556100 21.665000 -11.733000 -24.328900 0.000322 -0.000009 -2.227910 -7.568490 -16.451600 -22.291500 -0.000108 -0.000004 6.209580 5.346910 -1.274830 -2.192480 -6.469440 -0.000000 -175.308000 -11.635000 -2.670200 39.081100 -0.000007 -0.000012 -0.175508 0.331292 27.913400 40.985400 -0.000006 -0.000013 0.308474 6.668060 -69.381400 11.754300 -0.000000 0.000003 -0.000265 -0.002347 -16.665300 -2.192510 6.469440 -0.000001 175.071000 23.680800 179.205000 -39.081100 -0.002282 -0.040193 -0.171609 0.345280 26.866800 -40.985400 0.000008 0.000006 3.497120 15.424400 -69.914700 -11.754300 -0.000006 -0.000006 -0.002654 -0.036625 -18.062500
0.000000 0.000000 0.000000 0.000000 0.000000 -0.000000 -0.797124 91.306700 1.307930 89.622200 -0.585634 5.690830 15.735700 0.000005 -0.000001 76.198400 83.772200 -76.289500 8.984550 -0.406207 -0.000000 4.332250 -2.963820 -0.069958 16.377300 -0.000001 -0.000001 3.262460 -2.539780 0.930018 6.456720 -0.000001 -0.000000 -3.428550 0.218261 -2.368800 12.994200 -0.242716 4.980390 -91.972900 6.298410 -72.568100 5.348090 -0.000007 -0.000001 -59.730700 41.230600 -14.808100 24.328600 0.000019 0.000005 6.090610 16.228800 -20.896500 22.291600 -0.000001 0.000005 11.646300 5.212180 2.412090 12.994500 -0.242716 -4.980390 87.780800 10.946300 -78.465500 -5.348130 -0.000001 -0.000004 -60.899500 16.844600 -15.581800 -24.328900 0.000322 -0.000009 -1.777830 -7.804470 -12.863800 -22.291500 -0.000108 -0.000004 -1.768750 5.295060 0.245189 -2.192480 -6.469440 -0.000000 -175.429000 -12.482400 -2.858200 39.081100 -0.000007 -0.000012 -0.171239 0.324764 27.801600 40.985400 -0.000006 -0.000013 0.622373 7.751180 -69.168800 11.754300 -0.000000 0.000003 -0.000247 -0.002212 -16.660500 -2.192510 6.469440 -0.000001 175.003000 23.455200 178.907000 -39.081100 -0.002282 -0.040193 -0.171262 0.342745 26.991300 -40.985400 0.000008 0.000006 3.331360 14.788000 -69.825000 -11.754300 -0.000006 -0.000006 -0.002618 -0.036207 -18.045500
0.000000 0.000000 0.000000 0.000000 0.000000 -0.000000 -0.667361 91.323100 1.120640 89.874500 -0.415970 5.620990 15.735700 0.000005 -0.000001 70.812700 83.770200 -71.324300 8.984550 -0.406207 -0.000000 3.991850 -4.072130 -0.880547 16.377300 -0.000001 -0.000001 3.771220 -1.868100 0.630043 6.456720 -0.000001 -0.000000 -3.807020 1.714450 -2.228380 12.994200 -0.242716 4.980390 -91.962600 6.174220 -72.327900 5.348090 -0.000007 -0.000001 -59.978200 40.295000 -12.531800 24.328600 0.000019 0.000005 6.674930 15.966400 -23.047100 22.291600 -0.000001 0.000005 11.936300 5.214070 2.363940 12.994500 -0.242716 -4.980390 87.880200 9.501570 -77.361000 -5.348130 -0.000001 -0.000004 -59.454100 6.637590 -20.319300 -24.328900 0.000322 -0.000009 -1.067920 -6.213870 -9.761280 -22.291500 -0.000108 -0.000004 -8.483790 5.187130 3.065530 -2.192480 -6.469440 -0.000000 -175.517000 -14.030800 -2.951860 39.081100 -0.000007 -0.000012 -0.161337 0.307669 27.672000 40.985400 -0.000006 -0.000013 1.110610 9.334630 -69.001400 11.754300 -0.000000 0.000003 -0.000227 -0.002057 -16.654900 -2.192510 6.469440 -0.000001 174.886000 22.874500 178.548000 -39.081100 -0.002282 -0.040193 -0.174532 0.346518 27.167900 -40.985400 0.000008 0.000006 3.100660 14.111900 -69.717500 -11.754300 -0.000006 -0.000006 -0.002765 -0.037916 -18.115000
0.000000 0.000000 0.000000 0.000000 0.000000 -0.000000 -0.580231 91.341700 0.987158 89.998400 -0.396606 5.451100 15.735700 0.000005 -0.000001 67.633700 83.887100 -68.741800 8.984550 -0.406207 -0.000000 3.506180 -4.605360 -2.073650 16.377300 -0.000001 -0.000001 4.243540 -1.289400 0.418049 6.456720 -0.000001 -0.000000 -3.900890 2.773420 -1.292970 12.994200 -0.242716 4.980390 -91.759700 5.494500 -72.210500 5.348090 -0.000007 -0.000001 -59.904000 40.079900 -11.477500 24.328600 0.000019 0.000005 6.713470 15.399600 -23.906400 22.291600 -0.000001 0.000005 11.990600 5.232890 1.880560 12.994500 -0.242716 -4.980390 88.145400 7.784190 -76.553900 -5.348130 -0.000001 -0.000004 -57.009400 -6.423100 -26.106900 -24.328900 0.000322 -0.000009 -0.934676 -7.614450 -7.014070 -22.291500 -0.000108 -0.000004 -9.393780 5.092540 5.280290 -2.192480 -6.469440 -0.000000 -175.582000 -15.022400 -3.135280 39.081100 -0.000007 -0.000012 -0.157002 0.300678 27.572000 40.985400 -0.000006 -0.000013 1.388580 10.223700 -68.881200 11.754300 -0.000000 0.000003 -0.000210 -0.001928 -16.650200 -2.192510 6.469440 -0.000001 174.941000 22.526600 178.152000 -39.081100 -0.002282 -0.040193 -0.159305 0.315178 27.291100 -40.985400 0.000008 0.000006 3.280650 13.693200 -69.719100 -11.754300 -0.000006 -0.000006 -0.002771 -0.037980 -18.117600
